<?xml version="1.0" encoding="utf-8"?>
<!-- Generator: Adobe Illustrator 19.0.0, SVG Export Plug-In . SVG Version: 6.00 Build 0)  -->
<svg version="1.1" id="Слой_1" xmlns="http://www.w3.org/2000/svg" xmlns:xlink="http://www.w3.org/1999/xlink" x="0px" y="0px"
	 viewBox="812.5 -268.7 667.6 506.6" style="enable-background:new 812.5 -268.7 667.6 506.6;" xml:space="preserve">
<title>Франшиза іконка_Монтажная область 1 копия 2</title>
<path d="M1362.6,53c-4.8,0.5-9.6,0.5-14.4,0c-4.8-0.4-9.6-1.3-14.2-2.7c-4.7-1.3-9.2-3.5-13.1-6.4c-2-1.5-3.7-3.3-5-5.4
	c-1.3-2.1-2-4.4-2.2-6.9c1.4,4.5,4.4,8.3,8.3,10.7c1.9,1.3,4,2.3,6.1,3.2c2.1,0.9,4.3,1.7,6.6,2.3c4.5,1.3,9.1,2.3,13.7,3.1
	C1353.1,51.8,1357.8,52.4,1362.6,53z"/>
<path d="M1372.4,13.2c2.1,2.6,3.9,5.4,5.4,8.4c1.5,3,2.5,6.3,2.9,9.6c0.5,3.4-0.3,6.9-2.1,9.8c-2,2.8-4.8,4.8-8,5.8
	c1.5-0.8,2.8-1.7,4.1-2.7c1.3-1,2.3-2.2,3.1-3.6c1.5-2.8,2.1-6,1.7-9.2c-0.4-3.2-1.3-6.4-2.5-9.3c-0.6-1.5-1.3-3-2.1-4.5
	C1374.1,16,1373.3,14.6,1372.4,13.2z"/>
<path d="M915.5-206.8c4.5-10.1,9.3-20.1,14.2-30c2.4-5,4.9-9.9,7.4-14.8l3.8-7.4c0.2-0.3,0.3-0.6,0.6-1c0.2-0.4,0.5-0.8,0.8-1.2
	c0.6-0.8,1.3-1.5,2-2.1c1.5-1.2,3.2-2.1,5.1-2.5c1.9-0.4,3.9-0.4,5.7,0.1c0.9,0.2,1.9,0.6,2.7,1l1.9,1c2.5,1.3,4.9,2.6,7.3,3.9
	l14.6,7.8c4.9,2.6,9.7,5.3,14.5,8c4.8,2.7,9.6,5.5,14.3,8.3l3.1,1.9l-1.7,3c-5.9,9.8-12,19.6-17.9,29.4c-3,4.9-5.9,9.8-8.8,14.8
	s-5.8,9.9-8.5,15c-11.2,20-21.5,40.6-31.7,61.1s-21.1,40.8-31.8,61S891.4-9.1,880,10.8l-2.3,4l-3.7-2.2L859,4
	c-5-2.9-9.9-5.8-14.9-8.7c-4.9-2.9-9.9-5.8-14.8-8.8s-9.9-5.9-14.8-8.9l-2.1-1.3l1.2-1.9c3-5,6-9.9,9.1-14.8l4.6-7.4l4.7-7.3
	l0.8,0.4l-3.7,7.9l-3.7,7.8c-2.5,5.2-5.1,10.5-7.6,15.7l-0.9-3.3c5.2,2.5,10.3,5.1,15.4,7.7s10.2,5.2,15.3,7.8S858-5.9,863-3.2
	l15.3,8l-6.1,1.8c10.7-20.3,21.8-40.4,33.2-60.3c11.4-19.9,22.6-39.9,34.5-59.6s23.7-39.4,34.6-59.5c2.8-5,5.5-10.1,8.1-15.2
	c2.7-5.1,5.2-10.2,7.8-15.3c5.1-10.3,10.1-20.6,15.4-30.8l1.4,4.8c-4.9-2.5-9.8-5.1-14.7-7.6s-9.7-5.2-14.5-8l-14.4-8.1
	c-2.4-1.3-4.8-2.7-7.2-4.1l-1.8-1c-0.4-0.2-0.7-0.4-1.1-0.5c-0.8-0.2-1.6-0.3-2.5-0.1c-0.8,0.2-1.6,0.5-2.3,1
	c-0.3,0.3-0.6,0.6-0.9,0.9c-0.1,0.2-0.3,0.3-0.4,0.5c-0.2,0.2-0.3,0.5-0.5,0.8l-4.2,7.1c-2.8,4.8-5.6,9.5-8.5,14.2
	c-5.7,9.4-11.6,18.8-17.7,28.1L915.5-206.8z"/>
<path d="M1451.3-94.3c5.8,10.2,11.3,20.4,16.6,30.8c2.7,5.2,5.3,10.4,8,15.5c0.7,1.2,1.3,2.8,2,4.2c0.3,0.7,0.5,1.5,0.8,2.3l0.4,1.1
	l0.3,1.2c0.7,3.2,0.9,6.4,0.7,9.7c-0.2,3.3-1,6.5-2.2,9.5c-0.6,1.5-1.3,3-2.1,4.4c-0.8,1.4-1.8,2.7-2.8,4c-1,1.3-2.2,2.5-3.4,3.6
	c-1.2,1.1-2.5,2.1-3.9,3c-1.4,0.9-2.8,1.8-4.3,2.5l-3.9,1.9c-10.5,5-21.1,9.8-31.8,14.3l-3.3,1.4l-1.3-3.1
	c-4.5-10.5-8.9-21.2-13.4-31.8l-3.4-7.9l-3.5-7.9c-2.3-5.3-4.7-10.5-7.1-15.7c-9.6-20.8-20.2-41.2-30.6-61.6s-20.5-41.1-30.6-61.7
	c-5-10.3-10-20.6-14.9-31c-4.9-10.4-9.7-20.8-14.4-31.3l-1.9-4.2l4.1-1.9c8.6-3.9,17.2-7.6,25.8-11.5s17.2-7.5,25.9-11.2l3.3-1.4
	l1.6-0.7l0.8-0.3l0.4-0.2l0.6-0.2c4.3-1.5,9,0.6,10.7,4.8l0.7,1.6l1.3,3.3l2.7,6.5c3.6,8.7,7.1,17.4,10.5,26.2l-0.8,0.4
	c-4.6-8.2-9-16.5-13.4-24.9l-3.3-6.3l-1.6-3.1l-0.8-1.6c-0.2-0.3-0.4-0.6-0.6-0.8c-0.9-0.9-2.2-1.2-3.4-0.7l-6,3.1
	c-8.4,4.3-16.8,8.5-25.2,12.7c-8.4,4.1-16.8,8.4-25.3,12.5l2.2-6c5,10.3,10,20.7,14.8,31.1c4.8,10.4,9.5,20.9,14.3,31.3
	c9.4,20.9,18.9,41.8,27.8,63c8.9,21.2,17.9,42.3,27.8,63c2.4,5.2,4.9,10.4,7.5,15.5l3.8,7.7l3.9,7.6c5.2,10.2,10.6,20.4,15.8,30.6
	l-4.6-1.7c10.4-5.3,20.8-10.4,31.4-15.3l4-1.8c1.1-0.5,2.2-1.2,3.3-1.9c2.2-1.3,4.1-3,5.7-5c0.8-1,1.6-2,2.3-3.1
	c0.7-1.1,1.2-2.2,1.8-3.4c0.5-1.2,1-2.4,1.3-3.6c0.3-1.2,0.6-2.5,0.7-3.8c0.3-2.6,0.3-5.1-0.2-7.7l-0.2-1l-0.2-0.9
	c-0.2-0.6-0.3-1.3-0.5-1.9c-0.5-1.2-0.9-2.4-1.5-3.8c-2.3-5.3-4.6-10.7-6.8-16.1c-4.5-10.7-8.9-21.5-13-32.5L1451.3-94.3z"/>
<path d="M1046.3,120.4c-0.6,0.8-1.2,1.6-1.9,2.4c-0.1,0.1-0.3,0.2-0.4,0.3c-0.1,0.1-0.1,0,0-0.3c0.2-0.5,0.9-1.8,1-2.1
	c0.1-0.3-0.3,0-0.8,0.7c-0.3,0.3-0.6,0.7-0.8,0.8c-0.1,0.2-0.3,0.3-0.5,0.4c-0.3,0.2-0.6,0.5-0.6,0.3c0.1-0.4,0.2-0.8,0.4-1.2
	c0.3-0.6,0.7-1.5,1.4-2.7l0.5-0.8c0.9-1.1,1.5-1.9,1.9-2.4c0.3-0.3,0.6-0.6,1-0.9c0.2-0.1,0.1,0.3,0,0.6c-0.1,0.2-0.1,0.4-0.2,0.6
	c-0.1,0.3-0.3,0.7-0.5,1c-0.4,0.8-0.5,1.2-0.3,1s1.1-1.3,1.5-1.7c0.2-0.2,0.3-0.2,0.3-0.1c0,0.2-0.1,0.3-0.1,0.5
	c-0.4,0.9-0.9,1.8-1.4,2.7L1046.3,120.4z"/>
<path d="M1191.5,130.5c1.8,0.8,3.4,1.6,5.1,2.5s3.3,1.9,4.9,2.9s3.2,2.1,4.7,3.2c0.8,0.5,1.5,1.1,2.3,1.7l1.2,0.9l0.6,0.5l0.3,0.2
	l0.1,0.1l0.1,0.1l0,0l0.2,0.2c0.2,0.2,0.4,0.5,0.6,0.8l-0.7-1c5.5,4.3,10.5,9.2,14.9,14.6c4.3,5.6,7.8,11.9,10.3,18.5
	c1.3,3.3,2.4,6.7,3.2,10.1c0.9,3.5,1.2,7.2,0.9,10.8c-0.4,3.7-1.6,7.4-3.6,10.6c-2,3.2-4.5,6-7.5,8.3c-5.7,4.7-12.3,8.1-19.4,10.1
	c-3.7,1-7.6,1.4-11.5,1.1c-3.9-0.3-7.7-1.3-11.3-2.9c-7-3.2-12.6-8.2-17.2-13.5c-4.5-5.3-8.6-10.9-12.3-16.8l0.6-0.6
	c5.8,4,10.9,8.6,16.2,12.7s10.6,7.7,16.2,9.7c5.5,2.1,11.5,2.5,17.3,1.4c3-0.6,6-1.5,8.8-2.7c2.9-1.3,5.8-2.8,8.6-4.4
	c2.7-1.5,5.2-3.3,7.4-5.5c2.2-2.2,3.7-5,4.4-8.1c0.7-3.2,0.6-6.4-0.3-9.6c-0.8-3.2-2.2-6.2-4-9c-3.6-5.6-8.4-10.3-12.9-15.1
	s-8.9-9.8-13.6-14.7l-0.7-1c0.1,0.3,0.3,0.5,0.5,0.7l0.1,0.2l0,0l-0.1-0.1l-0.1-0.1l-0.2-0.2l-0.5-0.5l-0.9-1l-1.9-2l-3.8-4
	l-3.8-4.1c-1.3-1.4-2.5-2.8-3.8-4.2L1191.5,130.5z"/>
<path d="M1218.8,199.7c-3.3,4.7-7.6,8.5-12.5,11.3c-2.6,1.4-5.3,2.5-8.2,3c-2.9,0.5-6,0.5-8.9-0.1c-5.9-1.1-11-4.1-15.5-7.5
	c-4.4-3.5-8.5-7.2-12.4-11.3c4.9,2.7,9.4,6,14.1,8.8s9.5,5.3,14.5,6.2c5.1,0.9,10.4,0.3,15.2-1.9
	C1210,206.1,1214.6,203.2,1218.8,199.7z"/>
<path d="M1188.7,146.3c2.6,1.4,5,2.9,7.4,4.6c1.2,0.8,2.4,1.7,3.5,2.6l1.7,1.3l0.8,0.7l0.4,0.3l0.2,0.2l0.1,0.1h0.1l0,0l0.1,0.1
	c0.1,0.1,0.2,0.2,0.3,0.4l-0.3-0.4c3.1,2.6,6,5.4,8.8,8.3c2.8,2.9,5.3,6.1,7.6,9.5c2.3,3.4,4.1,7.1,5.4,11c1.3,3.9,1.5,8.1,0.4,12.1
	c0-3.9-1-7.8-2.7-11.3l-0.6-1.3l-0.7-1.3l-0.7-1.3l-0.8-1.2l-0.8-1.2l-0.8-1.2c-0.5-0.8-1.1-1.6-1.7-2.4c-2.3-3.1-4.8-6.1-7.4-9
	c-2.6-2.9-5.3-5.8-8.1-8.6l-0.3-0.5c0.1,0.1,0.1,0.2,0.2,0.3l0.1,0.1l0,0l0,0l-0.1-0.1l-0.2-0.2l-0.4-0.4l-0.7-0.8l-1.5-1.5
	c-1-1-2-2-3-3L1188.7,146.3z"/>
<path d="M1106.9,158.9c-0.6,0.8-1.2,1.6-1.9,2.3c-0.1,0.1-0.3,0.3-0.4,0.3c-0.1,0-0.1,0,0-0.3c0.2-0.6,0.9-1.8,0.9-2.1
	s-0.3,0-0.8,0.7c-0.3,0.3-0.6,0.7-0.8,0.8c-0.1,0.2-0.3,0.3-0.5,0.4c-0.3,0.2-0.6,0.5-0.6,0.3c0-0.4,0.2-0.9,0.4-1.3
	c0.3-0.6,0.7-1.5,1.3-2.8l0.5-0.7c0.9-1.2,1.5-1.9,2-2.4c0.3-0.3,0.6-0.6,1-0.9c0.2-0.1,0.1,0.3,0,0.7c0,0.2-0.1,0.4-0.2,0.6
	c-0.1,0.3-0.3,0.7-0.5,1c-0.3,0.8-0.5,1.3-0.2,1s1.1-1.3,1.5-1.7c0.2-0.2,0.3-0.2,0.3-0.1c0,0.2,0,0.4-0.1,0.5
	c-0.4,0.9-0.8,1.9-1.3,2.7L1106.9,158.9z"/>
<path d="M985.2,80.5c-0.6,0.8-1.3,1.6-1.9,2.3c-0.1,0.1-0.2,0.2-0.4,0.3c-0.1,0.1-0.1,0,0-0.3c0.3-0.5,1-1.8,1-2s-0.3,0-0.8,0.7
	c-0.3,0.3-0.6,0.7-0.8,0.8c-0.1,0.2-0.3,0.3-0.5,0.5c-0.3,0.2-0.5,0.5-0.5,0.3c0.1-0.4,0.3-0.8,0.5-1.2c0.3-0.6,0.8-1.4,1.5-2.7
	l0.5-0.7c0.9-1.1,1.5-1.9,2-2.4c0.3-0.3,0.6-0.6,0.9-0.9c0.2-0.1,0,0.3-0.1,0.6c-0.1,0.2-0.1,0.4-0.2,0.6c-0.1,0.3-0.4,0.7-0.5,1
	c-0.4,0.7-0.6,1.2-0.3,1s1.1-1.3,1.5-1.7c0.2-0.2,0.3-0.3,0.3-0.1c0,0.2-0.1,0.3-0.2,0.5c-0.4,0.9-0.9,1.8-1.5,2.6L985.2,80.5z"/>
<path d="M1191.5,130.5c-0.1-0.1-0.2-0.1-0.3-0.1L1191.5,130.5c1.6,1,3.2,2,4.7,3l4.6,3.1l4.6,3l4.6,3l0.1,0.1l0.2,0.2
	c0.2,0.2,0.4,0.5,0.6,0.8l-0.9-1c7.5,5,15.3,9.5,23.4,13.5c4,2,8,3.8,12.1,5.4c4.1,1.6,8.3,2.8,12.7,3.4c0.5,0.1,1.1,0.1,1.6,0.2
	l1.6,0.1c1.1,0.1,2.2,0,3.3,0c2.2-0.2,4.4-0.6,6.5-1.3c2.1-0.7,4.1-1.6,6-2.8c1.9-1.2,3.6-2.6,5.1-4.2c3.1-3.2,5.6-7,7.3-11.1
	c0.4-1,0.9-2,1.3-3.1l0.3-0.8c0.1-0.3,0.1-0.5,0.2-0.7c0.1-0.4,0.2-0.9,0.3-1.3c0.2-1.9-0.1-3.7-0.7-5.5c-0.7-1.9-1.5-3.8-2.6-5.5
	c-1.1-1.8-2.3-3.6-3.6-5.2c-2.7-3.5-5.7-6.7-8.9-9.8c-6.5-6.2-13.5-11.9-20.5-17.7c-14.1-11.6-28.8-22.6-43.3-34.3l0.4-0.8
	c17.2,7.3,33.5,16.7,48.5,27.8c7.6,5.6,14.7,11.9,21.2,18.8c3.3,3.5,6.3,7.3,9,11.3c3,4.2,5.1,8.9,6.2,13.9c0.5,2.7,0.4,5.5-0.3,8.2
	c-0.2,0.7-0.4,1.4-0.7,2c-0.1,0.3-0.3,0.7-0.4,0.9l-0.4,0.8c-0.6,1-1.2,2.1-1.9,3.1c-2.6,4.1-5.7,7.8-9.2,11.1
	c-0.9,0.8-1.8,1.6-2.8,2.3s-1.9,1.4-3,2c-2,1.3-4.2,2.4-6.4,3.3c-4.5,1.8-9.3,2.8-14.2,3c-9.8,0.4-19.5-1.7-28.2-6.2
	c-2.2-1-4.2-2.3-6.3-3.4c-2.1-1.2-4.1-2.5-6-3.9c-3.9-2.7-7.6-5.6-11.2-8.7l-0.9-1c0.1,0.3,0.3,0.5,0.5,0.7l0.3,0.3
	c-1.4-1.2-2.8-2.5-4.2-3.8s-2.7-2.6-4-4s-2.6-2.7-3.8-4.1c-1.2-1.4-2.5-2.8-3.6-4.3l0.3,0.1c-0.1,0-0.3-0.1-0.3-0.2L1191.5,130.5z"
	/>
<path d="M1212.6,61.1L1212.6,61.1l-0.3-0.1C1212.4,61,1212.6,61.1,1212.6,61.1l-0.3-0.1l0,0h0.1L1212.6,61.1c5,2.9,9.8,5.8,14.7,8.8
	l14.5,8.9l14.5,8.8c4.8,2.9,9.7,5.8,14.5,8.7c9.6,5.8,19.3,11.9,30,15.1c5.3,1.7,10.9,2.3,16.4,1.8c0.7-0.1,1.3-0.2,2-0.3
	c0.7-0.1,1.3-0.3,2-0.5c1.3-0.4,2.5-0.9,3.6-1.5c2.2-1.2,4.2-2.9,5.6-5c1.4-2,2.3-4.3,2.7-6.7c0.3-2.4,0.2-4.9-0.4-7.2
	c-1.3-5-3.5-9.8-6.4-14.1c-5.9-9-13.7-17-21.6-24.9c-15.8-15.8-33.2-30.4-50.5-45.4l0.5-0.8c5.2,2.5,10.2,5.3,15.1,8.3
	c2.5,1.5,4.9,3,7.3,4.6c2.4,1.6,4.8,3.1,7.2,4.8s4.7,3.3,7,5s4.6,3.5,6.8,5.3c4.5,3.6,8.9,7.4,13.1,11.4c4.3,4,8.3,8.3,12,12.8
	c3.8,4.6,7.2,9.4,10.2,14.6c2.9,5.2,5.5,11,6.2,17.4c0.4,3.3,0.1,6.6-0.8,9.7c-1,3.1-2.6,6-4.8,8.4c-2.1,2.4-4.8,4.2-7.8,5.4
	c-1.4,0.6-2.9,1-4.4,1.3c-0.7,0.2-1.5,0.3-2.2,0.4c-0.7,0.1-1.5,0.2-2.2,0.2c-5.9,0.1-11.7-0.6-17.4-2.1c-5.6-1.3-11.2-3-16.7-4.9
	c-5.5-1.9-10.9-4-16.1-6.5c-5.2-2.5-10.2-5.3-15.1-8.5c-4.9-3.1-9.6-6.3-14.2-9.8c-4.6-3.4-9.1-7-13.4-10.8
	c-4.4-3.7-8.5-7.7-12.5-11.9l0.3,0.1l0,0l-0.3-0.1c0.1,0.1,0.2,0.1,0.3,0.1l-0.3-0.1l0,0L1212.6,61.1z"/>
<path d="M996.3-210c8.9,4,17.2,8.5,25.6,12.3c4.1,1.9,8.2,3.6,12.4,5.1c1,0.3,2,0.7,3.1,1l1.5,0.4l1.4,0.3c0.5,0.1,0.9,0.2,1.4,0.3
	l1.5,0.2c1,0.2,2,0.1,3.1,0.2c2.1,0.1,4.3,0,6.6,0l7-0.3c4.9-0.2,9.8-0.1,14.6,0.3c2.5,0.2,4.9,0.6,7.4,1c2.4,0.5,4.8,1.1,7.2,1.8
	c4.7,1.4,9.2,3.5,13.3,6.1c-9.8-0.5-18.9-0.9-27.9,0.1c-4.5,0.4-9.1,1-13.7,1.5c-2.3,0.3-4.7,0.5-7.2,0.7c-2.5,0.2-5,0.3-7.6,0.2
	c-1.3-0.1-2.6-0.1-4-0.4c-1.4-0.2-2.7-0.4-4.1-0.8l-2-0.5l-1.9-0.7c-1.3-0.4-2.4-0.9-3.6-1.4c-4.6-2-8.9-4.5-13-7.4
	C1009.4-195.6,1002.3-202.3,996.3-210z"/>
<path d="M898.2-31.4v0.1c3.6,4.4,6.6,9.2,9,14.3c2.4,4.9,4.5,10,6.2,15.1c1.7,5.2,3.1,10.5,4.1,15.9c0.5,2.7,0.9,5.4,1.2,8.2
	l0.2,2.1c0,0.6,0.1,1.2,0.2,1.8c0.3,1.3,0.7,2.7,1.1,4.1c-1.4-0.6-2.7-1.4-3.8-2.4c-0.6-0.6-1.2-1.2-1.6-1.9l-1.3-1.7
	c-1.6-2.3-3.1-4.7-4.4-7.2c-2.6-4.9-4.8-10-6.5-15.2c-1.7-5.2-3-10.6-3.9-16c-1-5.6-1.2-11.3-0.6-17v0L898.2-31.4z"/>
<path d="M1176-139.4c8.3,4.4,16.3,9.1,24.4,13.9c4,2.4,8,4.8,12,7.3s7.9,4.9,11.8,7.5l11.8,7.6l11.6,7.8
	c7.8,5.2,15.4,10.6,22.9,16.2c15,11.2,29.4,23.1,44.3,34.4c14.9,11.2,30.1,22,45.2,33.2c7.5,5.6,15,11.3,22.1,17.7
	c1.8,1.6,3.5,3.3,5.2,5.1c0.8,0.9,1.7,1.9,2.5,2.9c0.9,1.1,1.7,2.3,2.3,3.6c0.4,0.9,0.7,1.8,0.9,2.7l0.3,2c0.1,1.3,0.2,2.6,0.2,3.9
	c0,2.5-0.2,5.1-0.6,7.6c-0.8,5.1-2.4,10-4.7,14.6c-2.5,4.7-6,8.9-10.2,12.2c-4.3,3.2-9.4,5.4-14.7,6.3c-2.6,0.5-5.2,0.7-7.8,0.7
	l-3.8-0.1l-3.8-0.4c-4.9-0.7-9.7-1.9-14.4-3.6c-1.1-0.4-2.3-0.8-3.4-1.2l-3.4-1.4c-2.3-0.9-4.4-2-6.6-3c-4.3-2.2-8.5-4.5-12.5-7
	c-2.1-1.2-4-2.5-6-3.8s-4-2.6-5.9-4c-3.9-2.7-7.6-5.6-11.3-8.5s-7.3-5.9-10.8-9c-7.1-6.2-13.9-12.6-20.5-19.3l0.6-0.6
	c15,11.1,30,22.1,45.8,31.6c2,1.2,4,2.3,6,3.5s4,2.3,6,3.3c4,2.2,8.1,4.2,12.3,6c8.3,3.6,16.8,6.6,25.3,7.7c8.5,1.1,17,0,23.4-4.5
	c3.2-2.4,5.9-5.4,7.9-8.9c2-3.7,3.5-7.7,4.2-11.8c0.4-2.1,0.7-4.2,0.7-6.3c0.1-1.1,0-2.1,0-3.1l-0.1-1.5c0-0.2-0.1-0.4-0.2-0.6
	c-0.4-0.8-0.8-1.6-1.4-2.3c-0.6-0.8-1.3-1.7-2-2.5c-1.4-1.7-2.9-3.4-4.5-5c-6.4-6.5-13.2-12.9-20.1-19c-14-12.3-28.6-23.9-43.8-34.6
	c-15.2-10.8-31.2-20.4-46.8-30.6c-7.8-5.1-15.5-10.3-23.1-15.7l-11.4-8l-11.4-8.1c-3.8-2.7-7.6-5.5-11.3-8.2s-7.5-5.5-11.3-8.3
	c-7.5-5.6-14.9-11.2-22.2-17.1L1176-139.4z"/>
<path d="M1377.6,6.4c3.6-0.5,7.2-1,10.8-1.7c3.5-0.7,7-1.6,10.4-2.7c3.3-1,6.5-2.5,9.3-4.5c1.3-0.9,2.4-2,3.2-3.4
	c0.4-0.6,0.6-1.3,0.8-1.9l0.1-0.5c0-0.1,0-0.2,0-0.3c0-0.3-0.1-0.7-0.1-1V-10v0.3c-0.5-2.2-1.1-4.4-1.9-6.5
	c-0.8-2.2-1.7-4.4-2.6-6.6c-1.8-4.4-3.7-8.8-5.7-13.2c-2-4.4-4-8.8-6-13.1l-6.1-13c-8.3-17.3-16.8-34.7-25.3-52
	c-8.5-17.3-16.8-34.7-25-52.2c-8.2-17.5-16.3-35-24.9-52.3l3-1.5l0.5,1.1l0.7,1.4l-1.3,0.7l-10.1,5.5l-10,5.6l-0.4,0.3l-0.5-0.1
	c-19.6-3.2-39.2-5.7-59-7.5c-19.7-1.8-39.6-3.3-59.3-3.3c-4.9,0-9.8,0.1-14.7,0.4c-4.7,0.2-9.5,0.8-14.1,1.8c-1,0.2-2.1,0.5-3.1,0.9
	c-0.4,0.2-0.9,0.4-1.3,0.6l-0.3,0.1l-0.3,0.2l-0.7,0.5c-1.9,1.2-3.9,2.7-5.8,4.1c-3.8,3-7.5,6.1-11.2,9.4
	c-14.7,13.2-28.6,27.1-41.7,41.8c-6.5,7.3-13,14.7-18.9,22.5c-2.9,3.8-5.7,7.7-8.2,11.8c-1.2,1.9-2.2,3.9-3.1,5.9
	c-0.3,0.8-0.6,1.7-0.8,2.5c-0.1,1-0.1,2-0.1,3c0,4.7,0.4,9.4,1.2,14c0.7,4.4,2.2,8.6,4.4,12.5c2,3.5,5.2,6.3,8.9,7.8
	c4.1,1.4,8.4,1.9,12.7,1.2c9.1-1,18.2-4.9,26.9-9.1c8.7-4.2,16.9-9.5,24.3-15.8c7.5-6.2,13.8-13.7,20.3-21.3
	c3.2-3.9,6.7-7.5,10.5-10.8c2-1.6,4.1-3.1,6.3-4.2c1.1-0.6,2.3-1.1,3.5-1.5c1.3-0.3,2.7-0.3,4,0h-0.1v0.9h-0.1
	c-1.1-0.2-2.3-0.1-3.4,0.3c-1.1,0.5-2.1,1.1-3.1,1.8c-2,1.3-3.9,2.8-5.7,4.5c-3.4,3.5-6.6,7.3-9.4,11.3c-5.8,8-12,16.1-19.4,23.1
	c-7.4,7-15.7,13-24.7,17.9c-4.5,2.4-9.1,4.6-13.8,6.6c-4.9,2-9.9,3.5-15.1,4.4c-5.6,1-11.3,0.5-16.7-1.2c-2.8-1-5.4-2.5-7.7-4.4
	c-2.2-1.9-4.2-4.1-5.7-6.6c-2.9-4.7-4.8-9.9-5.8-15.4c-1-5.1-1.5-10.4-1.6-15.6v-1.9c0-0.8,0-1.7,0.1-2.5c0.2-1.6,0.7-3.1,1.3-4.6
	c1-2.5,2.2-5,3.6-7.4c2.6-4.4,5.5-8.7,8.7-12.7c6.2-8,12.7-15.6,19.6-23c13.6-14.7,28.1-28.6,43.2-41.7c3.8-3.3,7.7-6.5,11.8-9.5
	c2.1-1.5,4.2-3,6.5-4.4l0.9-0.5l0.4-0.3l0.5-0.3c0.7-0.4,1.4-0.7,2.1-0.9c1.3-0.5,2.7-0.8,4.1-1.1c5.1-0.9,10.3-1.4,15.5-1.3
	c5.1-0.1,10.1,0,15.1,0.3c10,0.5,20,1.4,29.9,2.5c9.9,1.1,19.7,2.2,29.6,3.5c19.7,2.7,39.4,5.5,59,8.4l-0.9,0.2l10-5.8l9.9-5.9
	l-0.7,2.2l-0.6-1.1l3-1.5l27.6,51c9.1,17,18,34.2,26.4,51.5s16.7,34.9,24.5,52.5c3.9,8.8,7.7,17.7,11.3,26.7c1.8,4.5,3.6,9,5.1,13.6
	c0.8,2.3,1.6,4.6,2.3,7c0.8,2.4,1.3,4.9,1.7,7.5v0.2v0.1v-0.3c0.1,0.6,0.1,1.1,0.1,1.7c0,0.4,0,0.7-0.1,1.1l-0.2,0.8
	c-0.2,0.5-0.4,1.1-0.6,1.6c-0.3,0.5-0.5,1-0.9,1.4c-1.2,1.7-2.8,3.1-4.6,4.2c-3.3,2-6.9,3.4-10.6,4.2c-7.2,1.6-14.6,2.5-21.9,2.5
	L1377.6,6.4z"/>
<path d="M974.3-22.5c0,0.1-0.2,0.3-0.4,0.5l-0.5,0.6l-1,1.2l-2.1,2.3l-4.2,4.6l-8.4,9.1l-16.7,18.1c-11,12-22,24.2-31.6,36.8
	c-2.3,3-4.4,6.3-6.1,9.7c-0.4,0.8-0.7,1.6-1,2.4c-0.1,0.4-0.2,0.7-0.3,1.1c-0.1,0.4-0.2,0.8-0.2,1.2c-0.1,1.9-0.1,3.9,0,5.8
	c0.5,8,2.8,15.7,6.8,22.6c4,6.9,9.9,12.8,17.2,15.6c1.8,0.7,3.7,1.2,5.6,1.5c1.9,0.3,3.8,0.4,5.8,0.3c1,0,1.9-0.1,2.9-0.3
	c1-0.1,1.8-0.4,2.7-0.6s1.8-0.7,2.6-1l2.6-1.3c6.8-3.8,12.8-9.2,18.6-14.7c5.8-5.5,11.4-11.5,16.7-17.5s10.5-12.4,15.5-18.8
	c5-6.4,9.9-12.9,14.3-19.5c1.1-1.6,2.2-3.3,3.1-4.9c0.2-0.4,0.4-0.7,0.6-1.1c0.1-0.1,0.1-0.3,0.2-0.4c0-0.1,0.1-0.2,0.2-0.3
	c-0.1,0.1-0.1,0.3-0.1,0.5v0.4c0,0,0,0.1,0,0c0-0.4,0-0.9,0.1-1.3l0.1-0.9l0.1-0.8c0.3-2.1,0.7-4,0.9-5.9s0.5-3.8,0.6-5.7
	c0.3-3.7,0.1-7.5-0.5-11.2c-0.5-3.6-1.6-7-3.4-10.1c-1.8-3.1-4.2-5.9-7.1-8.1c-3.1-2.3-6.4-4.1-10-5.4c-1.9-0.6-3.7-1.3-5.7-1.7
	c-1-0.2-1.9-0.5-2.9-0.7l-3-0.5c-2-0.4-4-0.5-6-0.8L974.3-22.5z M973.9-23.5c2-0.3,4.2-0.6,6.4-0.8l3.1-0.2c1-0.1,2.1-0.1,3.1-0.1
	c4.3,0,8.5,0.4,12.7,1.2c4.3,0.9,8.5,2.5,12.3,4.8c4,2.4,7.4,5.5,10.1,9.4c2.6,3.8,4.5,8.1,5.6,12.6c1,4.4,1.5,8.9,1.5,13.4
	c0,4.3-0.4,8.6-1,12.9l-0.1,0.7l-0.1,0.6c0,0.1,0,0.2,0,0.3v0.5l-0.1,0.6c-0.1,0.4-0.1,0.8-0.3,1.2c-0.2,0.5-0.3,0.8-0.4,1.1
	c-0.1,0.3-0.3,0.7-0.4,1c-0.3,0.5-0.5,1.1-0.8,1.6c-1.1,2-2.2,3.8-3.4,5.7c-4.6,7-9.7,13.7-15.1,20.2c-5.3,6.4-10.9,12.7-16.7,18.7
	c-5.8,6.1-12,11.8-18.5,17.1c-3.3,2.7-6.7,5.2-10.3,7.5c-3.6,2.4-7.4,4.4-11.3,6.1l-3.1,1.1c-1.1,0.3-2.2,0.6-3.3,0.8
	s-2.3,0.4-3.4,0.4c-1.1,0.1-2.2,0.1-3.3,0c-4.4-0.2-8.7-1.1-12.7-2.9c-8-3.6-14.1-10-18.7-17.1c-4.6-7.2-7.8-15.2-9.5-23.6
	c-0.4-2.1-0.7-4.3-0.9-6.5c0-0.6,0-1.3,0-1.9c0-0.6,0.1-1.3,0.2-1.9c0.2-1.2,0.5-2.4,0.9-3.5c1.5-4.2,3.4-8.1,5.8-11.9
	c4.6-7.1,9.8-13.7,15.6-19.9c5.6-6.2,11.5-12,17.5-17.7c3-2.9,6.1-5.6,9.2-8.4s6.2-5.4,9.4-8.1s6.4-5.2,9.7-7.8
	c1.6-1.3,3.3-2.5,5-3.7c0.8-0.6,1.7-1.2,2.5-1.8l1.3-0.9l0.6-0.4C973.3-23.1,973.5-23.2,973.9-23.5z"/>
<path d="M1022.4,42.1c0,0.1-0.2,0.3-0.3,0.4l-0.4,0.5l-0.9,1l-1.8,2l-3.7,4l-7.4,8l-14.7,15.9c-9.7,10.6-19.4,21.3-27.8,32.4
	c-2.1,2.7-3.9,5.5-5.4,8.5c-0.3,0.7-0.6,1.4-0.8,2.1c-0.1,0.3-0.2,0.7-0.2,1c-0.1,0.3-0.1,0.7-0.2,1c-0.1,1.7-0.1,3.4,0,5.1
	c0.5,7,2.5,13.8,6,19.9c3.5,6,8.8,11.2,15.1,13.7c1.6,0.6,3.2,1.1,4.9,1.3c1.7,0.2,3.4,0.3,5.1,0.2c0.8,0,1.7-0.1,2.5-0.2
	c0.8-0.1,1.6-0.4,2.4-0.5l2.3-0.9l2.3-1.1c5.9-3.3,11.2-8.1,16.3-13s10-10.1,14.7-15.4c4.7-5.3,9.2-10.9,13.6-16.5
	s8.7-11.4,12.6-17.1c1-1.4,1.9-2.9,2.7-4.3c0.2-0.3,0.3-0.6,0.5-1c0.1-0.1,0.1-0.2,0.2-0.4c0-0.1,0.1-0.2,0.1-0.3
	c-0.1,0.1-0.1,0.3-0.1,0.4c0,0.1,0,0.1,0,0.2v0.1c0,0,0,0.1,0,0c0-0.4,0-0.8,0.1-1.1c0.1-0.5,0.1-1.1,0.2-1.5
	c0.6-3.4,1.1-6.8,1.4-10.3c0.3-3.3,0.1-6.6-0.4-9.8c-0.5-3.2-1.5-6.2-3.1-9c-1.6-2.8-3.7-5.2-6.3-7.1c-2.7-2-5.7-3.6-8.8-4.7
	c-1.6-0.5-3.3-1.1-5-1.5c-0.8-0.2-1.7-0.4-2.6-0.6l-2.6-0.3c-1.7-0.3-3.5-0.5-5.3-0.7L1022.4,42.1z M1022.1,41.3
	c1.8-0.2,3.7-0.5,5.6-0.7l2.8-0.2c0.9-0.1,1.8-0.1,2.8-0.1c3.8,0,7.5,0.3,11.2,1.1c3.8,0.8,7.5,2.2,10.8,4.2
	c3.5,2.1,6.5,4.9,8.9,8.2c2.3,3.4,4,7.1,4.9,11.1c0.9,3.8,1.3,7.8,1.3,11.7c0,3.8-0.3,7.6-0.9,11.3c-0.1,0.4-0.1,0.8-0.1,1.2
	c0,0.2,0,0.2,0,0.2c0,0.7-0.2,1.3-0.3,2c-0.1,0.4-0.2,0.7-0.4,1c-0.1,0.3-0.2,0.6-0.4,0.9c-0.2,0.5-0.5,1-0.7,1.4c-1,1.8-2,3.4-3,5
	c-4.1,6.2-8.5,12.1-13.2,17.7c-4.7,5.6-9.6,11.1-14.7,16.4c-5.1,5.3-10.5,10.4-16.2,15.1c-2.9,2.4-5.9,4.6-9,6.6
	c-3.2,2.1-6.5,3.9-10,5.4l-2.7,1c-0.9,0.3-1.9,0.5-2.9,0.7c-1.9,0.3-3.9,0.4-5.8,0.3c-3.8-0.1-7.6-1-11.2-2.6
	c-7-3.2-12.4-8.8-16.4-15c-4.1-6.3-6.9-13.4-8.4-20.7c-0.4-1.9-0.6-3.8-0.8-5.7c0-0.6,0-1.1,0-1.7c0-0.6,0.1-1.1,0.2-1.7
	c0.2-1,0.4-2.1,0.8-3.1c1.3-3.7,3-7.2,5.1-10.4c4-6.2,8.6-12.1,13.6-17.5c2.5-2.7,5-5.3,7.5-8c2.5-2.7,5.2-5.1,7.8-7.6
	s5.4-4.9,8.1-7.3c2.7-2.4,5.5-4.8,8.3-7.1c2.8-2.3,5.6-4.6,8.5-6.8c1.4-1.1,2.9-2.2,4.4-3.3l2.2-1.6l1.1-0.8l0.6-0.4
	C1021.6,41.6,1021.8,41.5,1022.1,41.3L1022.1,41.3z"/>
<path d="M1078.9,89.9c0,0.1-0.2,0.2-0.3,0.4l-0.4,0.5l-0.9,1l-1.7,2l-3.5,3.9l-7,7.6l-14,15.2c-9.2,10.1-18.5,20.3-26.5,30.9
	c-2,2.5-3.7,5.2-5.1,8.1c-0.3,0.6-0.6,1.3-0.8,2c-0.1,0.3-0.2,0.6-0.2,0.9c-0.1,0.3-0.1,0.7-0.2,1c-0.1,1.6-0.1,3.2,0,4.9
	c0.4,6.7,2.3,13.2,5.7,19c3.3,5.8,8.3,10.7,14.5,13.1c1.5,0.6,3.1,1,4.7,1.3c1.6,0.2,3.2,0.3,4.8,0.2c0.8,0,1.6-0.1,2.4-0.2
	s1.5-0.4,2.2-0.5l2.2-0.8l2.1-1.1c5.7-3.2,10.7-7.8,15.6-12.4s9.5-9.6,14-14.7c8.9-10.2,17.3-21,25-32.2c0.9-1.4,1.8-2.8,2.6-4.1
	l0.5-0.9c0.1-0.1,0.1-0.2,0.2-0.3c0-0.1,0.1-0.2,0.1-0.2c-0.1,0.1-0.1,0.3-0.1,0.4c0,0.1,0,0.1,0,0.2v0c0,0,0,0.1,0,0
	c0-0.4,0-0.8,0.1-1.1c0.1-0.5,0.1-1,0.2-1.5c0.6-3.2,1-6.5,1.3-9.8c0.3-3.1,0.1-6.3-0.4-9.4c-0.4-3-1.4-5.9-2.9-8.5
	c-1.5-2.6-3.5-4.9-5.9-6.8c-2.6-1.9-5.4-3.4-8.4-4.5c-1.6-0.5-3.1-1.1-4.8-1.4c-0.8-0.2-1.6-0.4-2.4-0.6l-2.5-0.4
	c-1.7-0.3-3.4-0.5-5.1-0.7L1078.9,89.9z M1078.5,89.1c1.7-0.2,3.5-0.5,5.4-0.7l2.6-0.2c0.9-0.1,1.8-0.1,2.6-0.1
	c3.6,0,7.2,0.3,10.7,1c3.7,0.8,7.2,2.1,10.4,4c3.4,2,6.3,4.7,8.5,7.9c2.2,3.2,3.8,6.8,4.7,10.7c0.9,3.7,1.3,7.5,1.2,11.3
	c0,3.6-0.3,7.2-0.8,10.8c-0.1,0.4-0.1,0.8-0.1,1.1c0,0.2,0,0.1,0,0.2c0,0.7-0.1,1.3-0.3,2c-0.1,0.4-0.2,0.7-0.4,1
	c-0.1,0.3-0.3,0.6-0.4,0.8c-0.2,0.5-0.5,1-0.7,1.4c-0.9,1.7-1.9,3.2-2.9,4.8c-3.9,5.9-8.1,11.5-12.7,16.9c-4.5,5.4-9.2,10.6-14,15.7
	c-4.9,5.1-10,9.9-15.5,14.4c-2.8,2.3-5.6,4.4-8.6,6.3c-3,2-6.2,3.7-9.6,5.2l-2.6,1c-0.9,0.3-1.8,0.5-2.8,0.7
	c-1.9,0.3-3.8,0.4-5.7,0.3c-3.7-0.1-7.3-1-10.7-2.5c-6.7-3-11.9-8.4-15.7-14.4c-3.9-6.1-6.6-12.8-8.1-19.8c-0.4-1.8-0.6-3.6-0.8-5.5
	c0-0.5,0-1.1,0-1.6c0-0.6,0.1-1.1,0.2-1.6c0.2-1,0.4-2,0.7-3c1.2-3.5,2.9-6.9,4.9-10c3.8-6,8.2-11.6,13-16.7
	c2.3-2.6,4.8-5.1,7.2-7.6c2.4-2.5,5-4.9,7.5-7.3s5.1-4.7,7.7-7s5.2-4.6,7.9-6.8c2.7-2.2,5.4-4.4,8.2-6.5c1.4-1.1,2.8-2.1,4.2-3.1
	l2.1-1.5l1.1-0.8L1078.5,89.1z"/>
<path d="M1133.6,134.1c0,0.1-0.1,0.2-0.3,0.4l-0.4,0.4l-0.8,0.9l-1.5,1.8l-3.1,3.5c-2.1,2.3-4.1,4.6-6.2,6.9l-12.5,13.7
	c-8.3,9.1-16.5,18.3-23.7,27.7c-1.8,2.2-3.3,4.6-4.6,7.2c-0.3,0.6-0.5,1.1-0.7,1.7c-0.2,0.5-0.3,1.1-0.4,1.6c-0.1,1.4-0.1,2.9,0,4.3
	c0.3,6,2,11.8,5,17c3,5.2,7.4,9.6,12.9,11.7c1.4,0.5,2.7,0.9,4.2,1.1c1.4,0.2,2.9,0.2,4.3,0.2c0.7,0,1.4-0.1,2.1-0.2s1.3-0.3,2-0.5
	l1.9-0.8l1.9-1c5-2.9,9.5-7,13.8-11.2s8.5-8.6,12.5-13.2c7.9-9.2,15.4-18.8,22.3-28.8c0.8-1.2,1.6-2.5,2.3-3.6l0.4-0.8
	c0.1-0.2,0.1-0.2,0.1-0.3s0.1-0.2,0.1-0.2c0,0.1-0.1,0.3-0.1,0.4c0,0.1,0,0.1,0,0.2v0.1c0,0,0,0.1,0,0c0-0.3,0-0.8,0.1-1
	c0.1-0.5,0.1-1,0.2-1.3c0.5-3.1,1-5.9,1.2-8.7c0.2-2.8,0.1-5.5-0.3-8.3c-0.4-2.6-1.2-5.2-2.5-7.5c-1.3-2.3-3.1-4.4-5.2-6
	c-2.3-1.7-4.8-3.1-7.4-4.1c-2.8-1-5.7-1.8-8.6-2.3c-1.5-0.3-3-0.5-4.5-0.7L1133.6,134.1z M1133.2,133.3c1.5-0.2,3.2-0.5,4.8-0.7
	c1.6-0.2,3.1-0.3,4.8-0.3c3.2-0.1,6.5,0.2,9.6,0.8c3.3,0.7,6.5,1.9,9.4,3.5c3.1,1.8,5.7,4.2,7.8,7.1c2,2.9,3.5,6.2,4.3,9.7
	c0.8,3.3,1.2,6.8,1.2,10.2c0,3.3-0.3,6.5-0.7,9.8c0,0.4-0.1,0.7-0.1,1c0,0.1,0,0.1,0,0.1c0,0.7-0.1,1.3-0.3,1.9
	c-0.1,0.4-0.2,0.6-0.3,0.9c-0.1,0.3-0.2,0.5-0.3,0.8c-0.2,0.4-0.4,0.9-0.6,1.3c-0.8,1.5-1.7,2.9-2.6,4.3
	c-3.5,5.3-7.3,10.3-11.4,15.2c-4,4.8-8.2,9.5-12.6,14c-4.4,4.6-9,8.9-13.9,12.9c-2.5,2-5.1,3.9-7.8,5.6c-2.7,1.8-5.6,3.3-8.7,4.6
	l-2.4,0.8c-0.8,0.2-1.7,0.4-2.5,0.6c-1.7,0.3-3.4,0.4-5.1,0.3c-3.3-0.1-6.6-0.9-9.6-2.3c-6-2.8-10.7-7.6-14.2-12.9
	c-3.5-5.4-6-11.5-7.4-17.8c-0.3-1.6-0.6-3.3-0.7-4.9c0-0.5,0-1,0-1.5c0-0.5,0.1-1,0.2-1.4c0.1-0.9,0.4-1.8,0.7-2.7
	c1.1-3.2,2.6-6.2,4.4-9.1c3.4-5.4,7.3-10.4,11.7-15c4.2-4.7,8.7-9.1,13.2-13.3s9.3-8.4,14.1-12.3c2.4-2,4.9-3.9,7.4-5.8
	c1.2-0.9,2.5-1.8,3.8-2.8l1.9-1.3l1-0.7L1133.2,133.3z"/>
<path d="M996.5-5.1c-3.3-2.4-6.9-4.3-10.8-5.6c-1.7-0.6-3.6-0.7-5.4-0.1c-0.4,0.2-0.7,0.4-1.1,0.6c-0.4,0.3-0.8,0.5-1.2,0.9
	c-0.8,0.6-1.6,1.2-2.4,1.9c-3.1,2.6-6.2,5.3-9.1,8.1c-2.9,2.8-5.6,5.8-8.1,8.9c-2.4,3.1-4.7,6.5-5.6,10c-0.1,0.4-0.2,0.8-0.2,1.3
	c-0.1,0.4-0.1,0.9-0.1,1.3c0,0.5,0,1,0.1,1.4l0.2,1.4c0.3,1.9,0.9,3.7,1.7,5.4c0.9,1.7,2,3.3,3.3,4.7c1.4,1.4,2.9,2.7,4.5,3.7
	c3.5,2.1,7.3,3.5,11.3,4.3c-4.2,0-8.4-0.9-12.2-2.6c-1.9-0.9-3.8-2.1-5.4-3.6c-1.6-1.5-3-3.2-4.2-5.1c-1.1-1.9-1.9-4-2.3-6.2
	l-0.3-1.6c-0.1-0.5-0.1-1.1-0.1-1.7c-0.1-0.6-0.1-1.2,0-1.8c0-0.6,0.1-1.2,0.2-1.8c0.5-2.2,1.4-4.3,2.5-6.2c1.1-1.9,2.3-3.7,3.6-5.3
	c5.3-6.5,11.5-12.3,18.4-17.1c0.9-0.6,1.7-1.2,2.6-1.8c0.5-0.3,0.9-0.6,1.4-0.8c0.5-0.3,1.1-0.5,1.7-0.7c2.3-0.5,4.6-0.2,6.7,0.8
	C990.2-10.7,993.6-8.2,996.5-5.1z"/>
<path d="M1046,60.7c-2.7-1.9-5.6-3.3-8.7-4.3c-1.4-0.5-2.8-0.5-4.2-0.1c-0.3,0.2-0.5,0.3-0.8,0.5c-0.3,0.2-0.6,0.5-1,0.7
	c-0.6,0.5-1.3,1-1.9,1.5c-2.5,2.1-4.9,4.3-7.2,6.6c-2.3,2.2-4.5,4.6-6.5,7.2c-2,2.3-3.5,5-4.4,7.9c-0.1,0.3-0.2,0.7-0.2,1
	c0,0.3,0,0.7,0,1c0,0.4,0,0.8,0,1.1l0.1,1.1c0.2,1.5,0.7,2.9,1.3,4.3c1.4,2.8,3.5,5.1,6.1,6.8c2.8,1.7,5.8,2.9,9,3.6
	c-3.4,0.1-6.8-0.6-9.9-2c-1.6-0.8-3.1-1.7-4.4-2.9c-1.3-1.2-2.5-2.6-3.4-4.2c-1-1.6-1.6-3.3-2-5.1l-0.2-1.3c0-0.5-0.1-0.9-0.1-1.4
	c0-0.5,0-1,0-1.5c0-0.5,0.1-1,0.2-1.5c0.4-1.8,1.1-3.5,2-5.1c0.9-1.5,1.8-3,2.9-4.4c4.3-5.3,9.3-9.9,14.9-13.8
	c0.7-0.5,1.4-1,2.1-1.4c0.4-0.2,0.7-0.5,1.1-0.7c0.5-0.2,0.9-0.4,1.4-0.6c1.9-0.4,3.8-0.1,5.6,0.7
	C1040.9,56.1,1043.7,58.2,1046,60.7z"/>
<path d="M1002.9,3.8c2.8,0.7,5.3,2.4,6.8,4.9c1.6,2.7,1.9,6,0.9,8.9c-0.8,2.7-2.2,5.2-4,7.4c-1.7,2.2-3.8,4-6.2,5.4
	c1.3-2.5,2.6-4.7,3.7-7c1.2-2.2,2.1-4.5,2.9-6.8c0.2-0.6,0.3-1.1,0.4-1.7c0.1-0.5,0.1-1.1,0.2-1.6c0-1.1-0.1-2.2-0.5-3.3
	C1006.1,7.6,1004.7,5.5,1002.9,3.8z"/>
<path d="M982.6-6.4c2.6,0.6,5,1.5,7.4,2.6c2.3,1.1,4.6,2.4,6.7,3.9c2.2,1.5,4.2,3.2,6,5.1c0.9,1,1.7,2.1,2.4,3.3
	c0.3,0.6,0.6,1.3,0.7,2c0.2,0.7,0,1.4-0.4,2c0-0.6-0.2-1.2-0.6-1.7c-0.4-0.5-0.8-0.9-1.2-1.3c-0.9-0.8-1.9-1.5-2.9-2.2l-6.2-4.2
	c-2.1-1.4-4.1-2.9-6.1-4.5C986.3-2.8,984.4-4.5,982.6-6.4z"/>
<path d="M1106.8,117.9c-2.3-4.6-5.6-8.5-9.7-11.5c-2-1.4-4.2-2.4-6.5-2.9c-0.6-0.2-1.2-0.3-1.8-0.3c-0.6-0.1-1.1-0.2-1.7-0.2
	c-1.1,0-2.2,0.2-3.2,0.6c-2.1,0.8-4.1,2.2-5.6,3.9c-1.7,1.8-3.1,3.8-4.4,5.9c-2.6,4.3-4.7,8.9-6.4,13.7l-0.1-0.9
	c0.6,1.3,1.2,2.6,2,3.8c0.8,1.3,1.6,2.4,2.6,3.6c1,1.1,2,2.2,3.1,3.2c1.2,1,2.4,1.9,3.7,2.7c-1.5-0.4-2.9-1.1-4.3-1.8
	c-1.4-0.8-2.6-1.7-3.8-2.8c-1.2-1.1-2.3-2.2-3.3-3.5c-1-1.3-1.9-2.6-2.6-4.1l-0.2-0.4l0.1-0.5c0.6-2.6,1.5-5.1,2.5-7.6
	c1-2.5,2.1-4.9,3.4-7.2c1.3-2.4,3-4.6,4.8-6.6c2-2.1,4.4-3.8,7.1-4.8c1.4-0.5,2.9-0.7,4.4-0.6c0.7,0,1.4,0.1,2.1,0.3
	c0.7,0.1,1.3,0.3,2,0.5c2.7,0.8,5.1,2.2,7.3,4c2,1.8,3.8,3.9,5.2,6.2C1105.2,112.9,1106.2,115.4,1106.8,117.9z"/>
<path d="M1153.8,152.2c-2.4-2.7-5.2-5-8.3-6.7c-1.6-0.8-3.4-1.3-4.9-0.7c-1.5,0.9-2.8,2-3.8,3.4c-2.2,2.8-4.3,5.7-6.2,8.7
	c-1.9,3-3.9,6-5.7,9l-0.1-2.1c2.7,3.3,5.8,6.3,9.2,9c0.8,0.6,1.7,1.1,2.6,1.5c0.8,0.3,1.7,0.5,2.5,0.5c2.1-0.3,4-0.9,5.9-1.9
	c4-1.8,7.4-4.7,9.9-8.4C1157.5,160.6,1157,155.5,1153.8,152.2L1153.8,152.2z M1153.8,152.2c0.7,0.8,1.4,1.8,1.9,2.8
	c0.5,1,0.9,2.1,1,3.2c0.3,2.3-0.2,4.6-1.2,6.6c-1,2.1-2.4,3.9-4,5.6c-1.6,1.7-3.4,3.2-5.3,4.4c-2,1.4-4.3,2.4-6.6,2.9
	c-0.4,0.1-0.7,0.1-1.1,0.1l-1.1-0.1c-0.7-0.1-1.3-0.3-2-0.5c-1.2-0.4-2.3-1-3.4-1.6c-2-1.3-3.8-2.8-5.5-4.4
	c-1.7-1.6-3.2-3.4-4.6-5.2l-0.8-1.1l0.7-1c2.1-3,4.2-5.9,6.5-8.7c2.3-2.8,4.7-5.5,7.3-8.1c0.7-0.6,1.4-1.2,2.1-1.8
	c0.4-0.3,0.8-0.6,1.2-0.8c0.4-0.3,0.9-0.5,1.3-0.6c1-0.2,1.9-0.2,2.9,0.1c0.9,0.3,1.7,0.6,2.5,1.1
	C1148.6,147.1,1151.4,149.5,1153.8,152.2z"/>
<path d="M1105.6,120.5c-1.2,3.5-2.8,6.8-4.8,9.9c-1,1.6-2.1,3.1-3.3,4.5c-1.3,1.5-2.7,2.8-4.4,3.9c-1,0.6-2.1,1.1-3.2,1.3
	c-0.6,0.1-1.2,0.1-1.7,0c-0.5,0-1-0.1-1.5-0.2c-1.9-0.4-3.8-1.1-5.5-2.1c-1.7-0.9-3.2-2.1-4.5-3.5c-1.4-1.3-2.3-3-2.7-4.9
	c1,1.4,2.4,2.6,3.9,3.5c1.5,0.9,3,1.6,4.6,2.2c1.5,0.6,3.1,1,4.8,1.2c0.4,0,0.8,0.1,1.2,0.1c0.3,0,0.7,0,1,0
	c0.6-0.1,1.2-0.4,1.7-0.8c1.4-0.9,2.6-2,3.8-3.2c1.2-1.2,2.4-2.5,3.6-3.8C1100.8,125.9,1103.1,123.2,1105.6,120.5z"/>
<path d="M1048.5,63.4c1.6,0.8,3,1.8,4.3,3.1c1.4,1.3,2.5,2.8,3.2,4.5c0.4,1,0.6,2,0.5,3.1c0,0.3,0,0.6-0.1,0.9l-0.2,0.7l-0.2,0.7
	l-0.3,0.7c-0.7,1.7-1.6,3.2-2.7,4.7c-2,2.8-4.4,5.4-7,7.8c-1.3,1.1-2.7,2.2-4.1,3.2c-1.4,1-3,1.8-4.7,2.3c1.2-1.2,2.4-2.4,3.5-3.7
	c1.1-1.3,2.2-2.6,3.2-3.9c2.1-2.6,4.2-5.2,6.1-7.9c0.9-1.3,1.8-2.6,2.5-4c0.7-1.1,1-2.5,0.7-3.8c-0.3-1.5-0.9-3-1.8-4.3
	C1050.5,66.1,1049.5,64.7,1048.5,63.4z"/>
<path d="M1261.6-204.2c-14.7-4-29.6-6.9-44.7-8.8c-15-1.8-30.2-2.5-45.1-0.5c-7.4,1-14.6,2.9-21.5,5.7c-6.8,2.8-13,7-18.1,12.4
	c-5.2,5.6-10.6,11-16.1,16.3s-11.1,10.5-16.8,15.5c10-11.5,20.3-22.7,30.4-34.1c5.3-5.8,11.9-10.5,19.2-13.5c7.2-3,14.8-5,22.5-5.9
	c7.7-1,15.4-1.3,23.1-0.9c7.7,0.3,15.3,1.1,22.9,2.3c7.6,1.2,15.1,2.8,22.4,4.7C1247.1-209.1,1254.4-206.9,1261.6-204.2z"/>
<path d="M1129.7-178.9c0.9-2.3,2.1-4.5,3.5-6.4c0.7-1,1.5-2,2.3-2.9c0.8-0.9,1.7-1.8,2.7-2.6c1.9-1.7,4-3.1,6.2-4.3
	c1.1-0.6,2.3-1.1,3.5-1.5c0.6-0.2,1.2-0.5,1.8-0.6l1.9-0.5c1.2-0.3,2.5-0.5,3.8-0.6c1.3-0.2,2.4-0.2,3.6-0.3l7.1-0.4
	c4.8-0.3,9.5-0.6,14.3-1.4c-2.2,1.1-4.5,2-6.8,2.7c-2.4,0.7-4.7,1.2-7.1,1.6c-2.4,0.4-4.8,0.8-7.2,1.1c-1.2,0.1-2.5,0.2-3.6,0.4
	c-1.1,0.1-2.2,0.3-3.3,0.6c-4.5,1-8.7,2.9-12.4,5.6c-1.9,1.3-3.7,2.8-5.4,4.4C1132.8-182.4,1131.2-180.7,1129.7-178.9z"/>
<path d="M1110.8-124.2l-9,13.4c-3,4.5-6.4,8.8-10.2,12.7c-1.9,2-4,3.8-6.3,5.4c-1.1,0.8-2.4,1.6-3.6,2.2c-1.3,0.7-2.7,1.2-4.1,1.5
	c-0.4,0-0.7,0.1-1.1,0.2h-1.2c-0.7,0-1.4-0.1-2.1-0.2c-1.4-0.2-2.8-0.6-4.1-1.1c-2.6-1-5-2.6-6.9-4.8c-1.8-2.1-3-4.7-3.6-7.5
	l-0.3-2.1c0-0.7,0-1.4-0.1-2.1c0-0.7,0-1.4,0.1-2.1c0-0.7,0.1-1.4,0.2-2.1c1.1-5.4,3-10.6,5.8-15.3c2.7-4.7,5.9-9.2,9.4-13.4
	c1.8-2.1,3.5-4.2,5.4-6.1c1.9-2,3.9-3.9,6-5.7l0.9-0.8l1.1,0.4c3.2,1.3,6.4,2.8,9.4,4.4c3.1,1.7,6,3.6,8.7,5.7
	c2.8,2.1,5.2,4.7,7.1,7.7c0.9,1.5,1.3,3.3,1.1,5.1C1113.1-126.8,1112.1-125.3,1110.8-124.2z M1110.5-124.4c1.3-1.1,2.2-2.6,2.5-4.2
	c0.1-1.6-0.4-3.2-1.4-4.5c-1.9-2.7-4.8-4.5-7.6-6.3c-2.8-1.7-5.9-3.1-8.9-4.5s-6.1-2.7-9.2-3.9l2-0.3c-7.9,7-14.9,15-20.7,23.8
	c-2.9,4.4-5.6,9-6.9,14c-0.6,2.5-0.8,5.2-0.4,7.7c0.4,2.6,1.6,4.9,3.3,6.9c1.7,1.9,4,3.2,6.5,3.9c1.2,0.3,2.5,0.5,3.8,0.6h1.9
	l0.8-0.1c0.3,0,0.6-0.2,0.8-0.2c2.3-0.9,4.5-2.1,6.4-3.8c2-1.6,4-3.3,5.9-5.1C1096.7-107.9,1104.5-115.5,1110.5-124.4z"/>
<path d="M945.9-260.1c-8.8-3.9-39.4,59.7-58.4,87.6c-19,27.9-70.8,145.4-71,145.9c-0.6,1.5,7.5,3.5,8.5,3.5c3.9,0.3,7.7-1.1,10.4-4
	c4.3-4.8,4.3-11.9,5-18.2c1.4-11.9,6.3-23.1,9.8-34.6c4-13.6,6.8-26.5,14.6-38.6c8.9-13.8,16.7-28.1,26.4-41.4
	c8.9-12.4,18.5-24.3,27.5-36.6c8.7-11.9,16.3-25.1,23.4-38.1C950.9-251.1,945.9-260.1,945.9-260.1z"/>
<path d="M1159.5-109.7c0,0,8.9-19,16.5-17.8c7.6,1.2,55.8,38,67.2,46.9s-19-3.8-30.4-12.7C1201.3-102.1,1169.6-104.7,1159.5-109.7z"
	/>
<path d="M1375.1,13.3c0,0-31.7-35.5-43.1-41.9c-11.4-6.3-53.3-27.9-66-40.6"/>
<path d="M941.3,24.7c0,0-35.5,30.4-35.5,40.6s6.4-3.8,6.4-3.8L941.3,24.7z"/>
<path d="M917.3,62.7c0,0-10.2,6.3-7.6,17.8s12.7,24.1,22.8,24.1c10.2,0-11.4-7.6-11.4-7.6S905.8,76.7,917.3,62.7z"/>
<path d="M1322.7,54.4c0,0,24.5,18.5,24.5,28.6s-3,25.8-19.9,28.8c0,0,16.1-7.2,11-18.6C1333.2,81.7,1318.5,53.6,1322.7,54.4z"/>
<path d="M992.1-220.1c0,0-11.4,8.9-21.6,30.4c-10.1,21.6-15.2,46.9-31.7,62.1c-12.5,11.7-20.6,27.4-22.8,44.4
	c-1.3,10.1-3.8,14-3.8,14"/>
<path d="M965.4-204.9c0,0-6.3,26.6-14,36.8s-12.7,21.6-12.7,24.1S968-182,965.4-204.9z"/>
<path d="M1477.2-47c-5.6-12.4-10.3-25.4-15.4-38c-9.8-24.1-19.8-48.2-30.4-71.9c-8.9-20.1-22-43.8-32.3-63.2c-2.5,0-1.6,2.5-1.3,3.8
	c3.3,15.2,18.3,33.5,23.7,48c2.7,7.6,4.9,15.3,6.6,23.2c0.9,3.8,1.6,7.7,2.3,11.6c1.6,8.4,3.2,17,7.5,24.5c4.5,7.8,6.1,16.8,9.7,25
	c3.9,8.9,9.8,16.7,14.8,25c5.4,8.9,9.4,18.8,12.7,28.6c0.4,1.3,0.8,2.6,1.2,3.9C1479.7-31.7,1480.7-39.2,1477.2-47z"/>
<path d="M1010.9-106.3l8.1-12.3c-1.2,0.5-4.9,5.1-9.3,11.3C1010.1-107,1010.6-106.7,1010.9-106.3z"/>
<path d="M1008.2-105.2c-9,12.9-20.4,31.1-21.8,36.4l22.9-35L1008.2-105.2z"/>
<path d="M975.6-74.9l32.7-49.9C1004.4-123.1,977.8-83.1,975.6-74.9z"/>
<path d="M996.6-61.4l29-44.3c-3.2,1.4-18.9,23.7-30.2,42C995.8-62.9,996.2-62.2,996.6-61.4z"/>
<path d="M993.6-60.7c-5.2,8.6-9.1,15.9-10,19.2l11.5-17.5C994.5-59.6,994.1-60.2,993.6-60.7z"/>
<path d="M1223.7,132.4c6.4-9.8,12.8-19.6,19.5-29.8C1240.9,103.6,1225,127.5,1223.7,132.4z"/>
<path d="M1217.2,128.8l19.5-29.8C1234.4,100,1218.5,123.9,1217.2,128.8z"/>
<path d="M1260.9,44.7c-5,7-11.5,17.4-12.3,20.3l13-19.9L1260.9,44.7z"/>
<path d="M1262.3,44.1l4-6.1c-0.7,0.3-2.5,2.5-4.7,5.7L1262.3,44.1z"/>
<path d="M1261.6-196.6l44.9,7.3C1304.2-191.4,1268-197.6,1261.6-196.6z"/>
<path d="M1241.7-190.1l57.8,9.4C1296.6-183.5,1250-191.4,1241.7-190.1z"/>
<path d="M1321.2-243.5c0,0-10.1,0-8.9,6.3s5.1,21.6,15.2,35.5s12.7,25.4,17.8,36.8c3.5,7.6,7.8,14.8,12.7,21.6c0,0,0.6-3.2-4.4-12
	c-5.1-8.9-19-52-25.4-57.1C1321.8-217.5,1310.4-241.6,1321.2-243.5z"/>
<path d="M936.9-82.5l-10,20c-1.6,3.4-3.3,6.7-4.7,10c-1.5,3.3-2.8,6.7-3.9,10.2c-0.5,1.6-0.9,3.3-1.1,5c0,1.8,0.1,3.5,0.4,5.2
	l1.1,11.1c0.4,3.7,0.8,7.4,1.2,11.1c0.4,3.7,1,7.4,1.8,11c-1.6-3.4-2.8-7-3.6-10.7c-0.9-3.6-1.7-7.3-2.3-11
	c-0.7-3.7-1.2-7.4-1.8-11.1c-0.1-0.9-0.3-1.9-0.4-2.8c0-0.5-0.1-0.9-0.2-1.5c0-0.5,0-1.1,0-1.6c0.2-2,0.6-4,1.2-5.9
	c2.5-7.2,5.7-14.1,9.7-20.5C928.1-70.4,932.3-76.6,936.9-82.5z"/>
<path d="M909-52l-3,12.5c-0.9,4.1-1.8,8.2-2.3,12.3c-0.1,1-0.2,2-0.3,3.1c-0.1,1-0.1,2-0.1,3.1c-0.1,2.1-0.1,4.2,0,6.3
	c0,2.1,0.1,4.2,0.4,6.2c0.1,1,0.3,2.1,0.5,3.1c0.2,1,0.6,2,1.1,3c-0.9-0.7-1.6-1.5-2.1-2.5c-0.5-1-1-2-1.4-3
	c-0.7-2.1-1.2-4.2-1.5-6.4c-0.3-2.2-0.5-4.3-0.6-6.5c0-1.1,0-2.2,0-3.3s0.1-2.2,0.3-3.3c0.6-4.3,1.7-8.6,3.3-12.7
	C904.7-44.5,906.6-48.4,909-52z"/>
<path d="M1434.4-90.2l-12.5-23.3c-2.1-3.9-4.2-7.8-6.2-11.7c-1-2-2-4-2.8-6.1s-1.8-4-2.8-6c-3.9-7.9-8.1-15.6-12.4-23.3
	s-8.7-15.3-13.4-22.8c-2.3-3.7-4.7-7.4-7.3-11c-1.3-1.8-2.6-3.5-3.9-5.2c-0.3-0.4-0.7-0.8-1-1.2c-0.3-0.4-0.7-0.8-1.1-1.1l-0.5-0.5
	l-0.5-0.4l-0.3-0.2l-0.2-0.1c-0.2-0.1-0.3-0.2-0.5-0.2c-0.7-0.3-1.6-0.3-2.3-0.2c-0.6,0.2-1.1,0.6-1.4,1.2c-0.7,1.8-0.9,3.7-0.7,5.6
	c0.1,2.1,0.5,4.2,1,6.2c0.5,2,1.3,4.1,2,6.2c5.8,16.6,11.8,33.3,17.7,49.8s12,33.2,18,49.8c3,8.3,6.1,16.6,9.2,24.8
	c0.8,2.1,1.6,4.1,2.4,6.1c0.4,1,0.8,2,1.3,3c0.4,1,0.8,1.9,1.4,3c2,4,3.7,8.1,5.6,12.1s3.7,8,5.8,11.7c1,1.8,2.2,3.5,3.7,4.9
	c0.3,0.2,0.6,0.4,0.9,0.5c0.2,0.1,0.5,0.1,0.7,0.1l0.8,0.1c1.1,0.2,2.1,0.3,3.2,0.4c4.2,0.5,8.5,0.1,12.6-1.1c2-0.6,3.8-1.6,5.3-3
	l1.1-1.1c0.3-0.4,0.6-0.8,0.9-1.2c0.1-0.2,0.3-0.4,0.4-0.6c0.1-0.2,0.2-0.4,0.2-0.6c0.1-0.5,0.2-0.9,0.2-1.4c0-2.1-0.3-4.2-0.8-6.3
	c-0.5-2.1-1.1-4.2-1.8-6.3c-1.4-4.2-2.9-8.3-4.6-12.4c-3.3-8.1-7-16.2-10.6-24.2c4,7.8,8,15.7,11.6,23.8c1.8,4,3.5,8.1,5,12.3
	c0.8,2.1,1.5,4.2,2,6.4c0.7,2.2,1,4.5,1.1,6.8c0,0.6-0.1,1.3-0.2,1.9c-0.1,0.3-0.2,0.7-0.4,1c-0.1,0.3-0.3,0.5-0.5,0.8
	c-0.3,0.5-0.7,1-1,1.5l-1.2,1.3c-1.7,1.6-3.8,2.8-6,3.6c-4.4,1.4-9,1.9-13.5,1.5c-1.1-0.1-2.3-0.2-3.4-0.3L1434-16
	c-0.3,0-0.6-0.1-0.9-0.2c-0.7-0.2-1.4-0.5-1.9-1c-0.9-0.8-1.8-1.7-2.5-2.6c-0.7-0.9-1.3-1.9-1.9-2.8c-2.4-3.9-4.3-7.9-6.2-11.8
	c-1.9-4-3.8-8-5.7-11.9c-0.5-0.9-1-2-1.5-3s-0.9-2.1-1.3-3.1c-0.8-2-1.7-4.1-2.5-6.2c-3.3-8.2-6.4-16.5-9.5-24.7
	c-6.2-16.5-12.3-33.1-18.3-49.7c-5.9-16.6-11.9-33.2-17.6-50c-0.7-2.1-1.4-4.2-2-6.5c-0.5-2.2-0.9-4.5-1-6.9c-0.1-1.2,0-2.4,0.1-3.6
	c0.1-1.3,0.5-2.6,1.1-3.8c0.4-0.7,0.8-1.3,1.4-1.8c0.6-0.5,1.3-0.9,2.1-1.1c1.4-0.3,2.8-0.2,4.2,0.3c0.3,0.1,0.7,0.2,1,0.4l0.5,0.3
	l0.4,0.3l0.8,0.6l0.7,0.6c0.4,0.4,0.8,0.8,1.2,1.3c0.4,0.4,0.8,0.9,1.1,1.3c1.4,1.8,2.8,3.6,4,5.4c2.5,3.7,4.9,7.5,7.2,11.3
	c4.6,7.6,8.9,15.3,13,23.1c4.1,7.8,8.2,15.6,11.9,23.7c0.9,2,1.8,4,2.6,6.2s1.7,4,2.6,6c1.9,4,3.8,7.9,5.8,11.9
	C1426.7-106.1,1430.6-98.2,1434.4-90.2z"/>
<path d="M1095.4-140.8c3.5,0.8,6.8,2.1,9.8,4c0.8,0.5,1.5,1.1,2.1,1.8c0.7,0.7,1.1,1.6,1.3,2.6c0,0.5,0,1-0.1,1.5
	c-0.1,0.5-0.2,0.9-0.3,1.4l-0.4,1.3l-0.5,1.3c-1.5,3.2-3.4,6.3-5.7,9.1c-2.1,2.9-4.6,5.4-7.5,7.5c1.3-1.2,2.5-2.5,3.6-3.9
	c1.1-1.4,2.2-2.8,3.2-4.2c2-2.8,3.8-5.9,5.3-9c0.8-1.5,1.2-3.1,1.3-4.7c-0.1-1.5-1.5-2.8-2.8-3.8c-1.4-1-2.9-1.9-4.5-2.7
	C1098.7-139.5,1097.1-140.1,1095.4-140.8z"/>
<path d="M1105.6,135.7c0,0,13.9-14,3.8-26.6s-26.6-16.5-26.6-16.5s0-1.3,2.5-2.5c2.5-1.3,17.8,8.9,19,10.1s8.9,5.1,10.1,14
	S1111.9,138.2,1105.6,135.7z"/>
<path d="M1363.6,44.9c0,0,15.1-12.7,6.1-26.2s-25.1-18.7-25.1-18.7s0.1-1.3,2.7-2.3s16.9,10.4,18.1,11.8c1.2,1.4,8.4,5.8,8.9,14.8
	S1369.7,47.9,1363.6,44.9z"/>
<path d="M954,39.9c0,0-3.8-8.9-5.1-7.6c-1.3,1.3-1.3,3.8,1.3,7.6s10.1,10.2,15.2,10.2c5.1,0,8.9,0,8.9-1.3s-1.3-1.3-5.1-1.3
	c-3.8,0-13.9-2.5-13.9-3.8C955,42.4,954.6,41.1,954,39.9z"/>
<path d="M1108.7-68.8c6.1-2.3,12.2-4.7,18.1-7.4c5.9-2.5,11.6-5.6,17-9.2c1.3-0.9,2.5-1.9,3.6-3c1-0.9,1.7-2.2,2.1-3.5
	c0.3-1.6,0.7-3.2,1.1-4.9c0.4-1.8,1.1-3.5,2.1-5c0.6-0.8,1.4-1.5,2.3-2c0.9-0.5,1.9-0.8,2.8-0.9c1.8-0.2,3.6-0.1,5.3,0.2
	c3.3,0.6,6.5,1.5,9.7,2.5c12.5,3.9,24.8,8.4,37,13.1c3,1.2,6.1,2.4,9.1,3.6c0.8,0.3,1.5,0.6,2.3,1.1c0.7,0.4,1.5,0.9,2.1,1.5
	c1.3,1,2.6,2.1,3.8,3.2c2.4,2.2,4.8,4.4,7.4,6.4c1.3,1,2.6,1.9,4,2.8c1.4,0.8,2.9,1.5,4.6,1.2c-1.6,0.5-3.3-0.1-4.8-0.8
	c-1.5-0.7-2.9-1.5-4.3-2.5c-2.7-1.9-5.3-3.9-7.9-5.9c-1.3-1-2.6-2-3.9-2.9c-0.6-0.5-1.3-0.9-2-1.2c-0.6-0.3-1.4-0.6-2.2-0.8
	l-9.1-3.2l-18.5-6.3c-6.2-2.1-12.3-4.2-18.6-6c-3-1-6.1-1.8-9.3-2.5c-1.5-0.3-2.9-0.4-4.4-0.3c-1.2,0.1-2.4,0.7-3.2,1.7
	c-0.8,1.2-1.4,2.6-1.8,4c-0.4,1.5-0.8,3.1-1.2,4.7c-0.1,0.5-0.3,0.9-0.4,1.4c-0.2,0.4-0.4,0.9-0.7,1.3c-0.3,0.4-0.5,0.8-0.8,1.1
	l-0.9,1c-1.2,1.2-2.6,2.2-4,3.1c-5.6,3.5-11.6,6.3-17.8,8.6C1121.3-72.5,1115.1-70.4,1108.7-68.8z"/>
</svg>
